REM MD5 8b34932858cc09954fc3eed4c913749b
FILE "Jungle Park (Japan).bin" BINARY
  TRACK 01 MODE2/2352
    INDEX 01 00:00:00
  TRACK 02 AUDIO
    INDEX 00 09:52:12
    INDEX 01 09:54:12
  TRACK 03 AUDIO
    INDEX 00 13:30:10
    INDEX 01 13:32:10
  TRACK 04 AUDIO
    INDEX 00 16:29:18
    INDEX 01 16:31:18
  TRACK 05 AUDIO
    INDEX 00 17:32:25
    INDEX 01 17:34:25
REM LEADOUT 22:01:11
